# xmcd
#
# Track frame offsets:
#	150
#	12142
#	23855
#	36412
#	46547
#	57560
#	68055
#	79317
#	90167
#	104055
#	114632
#	126502
#	137940
#	148585
#	160632
#	172120
#	186722
#	197267
#	209987
#	221150
#	231702
#
# Disc length: 3242 seconds
#
# Revision: 2
# Processed by: cddbd v1.4PL0 Copyright (c) Steve Scherf et al.
# Submitted via: CDmax 1.9
#
DISCID=470ca815
DTITLE=Patsy Cline - The Best of Patsy Cline
DYEAR=1900
DGENRE=
TTITLE0=Walkin' After Midnight
TTITLE1=I've Loved And Lost Again
TTITLE2=A Poor Man's Roses (Or A Rich Man's Gold)
TTITLE3=Turn The Cards Slowly
TTITLE4=I Cried All The Way To The Altar
TTITLE5=Pick Me Up (On Your Way Down)
TTITLE6=A Stranger In My Arms
TTITLE7=Honky Tonk Merry-Go Round
TTITLE8=A Church, A Courtroom And Then Goodbye
TTITLE9=Three Cigarettes In An Ashtray
TTITLE10=Never No More
TTITLE11=Dear God
TTITLE12=Lovesick Blues
TTITLE13=If I Could Only Stay Asleep
TTITLE14=Just Out Of Reach
TTITLE15=Then You'll Know
TTITLE16=I Love You Honey
TTITLE17=Fingerprints
TTITLE18=There He Goes
TTITLE19=He'll Do For You (What He's Done For Me)
TTITLE20=Crazy Dreams
EXTD=
EXTT0=
EXTT1=
EXTT2=
EXTT3=
EXTT4=
EXTT5=
EXTT6=
EXTT7=
EXTT8=
EXTT9=
EXTT10=
EXTT11=
EXTT12=
EXTT13=
EXTT14=
EXTT15=
EXTT16=
EXTT17=
EXTT18=
EXTT19=
EXTT20=
PLAYORDER=
